<svg xmlns="http://www.w3.org/2000/svg" viewBox="0 0 669.448 677.416"><defs><style>.cls-1{fill:#43101f;}</style></defs><title>MVFC-Logo</title><g id="Layer_2" data-name="Layer 2"><g id="Layer_1-2" data-name="Layer 1"><g id="MVFC-Logo"><path class="cls-1" d="M643.722,0c2.7.03,6.9.054,9.46,1.181.107.047.213.1.318.152a5.95,5.95,0,0,1,1.664,1.336c3.954,4.434,3.308,11.8-.551,16.019-4.057,4.433-8.265,8.724-12.508,12.979q-3.147,3.156-6.309,6.3a24.645,24.645,0,0,1-4.922,4.177A.752.752,0,0,0,631,43.5a6.5,6.5,0,0,0,1.423.284c2.938.245,5.87.654,8.8,1.017a.755.755,0,0,1,.556,1.13c-2.046,3.532-3.513,6.374-5.34,8.962-7.978,11.3-15.992,22.567-24.209,33.688-1.9,2.575-4.568,4.674-7.9,4.7a23.621,23.621,0,0,1-2.351-.293,4.826,4.826,0,0,0-2.576.689.661.661,0,0,0-.318.285.476.476,0,0,0,.226.557,1.388,1.388,0,0,0,.631.155c.544.045,1.426-.152,1.826.32a1.684,1.684,0,0,1,.273.531,10.108,10.108,0,0,1,.318,1.038c.069.288.252.707.106.992a.872.872,0,0,1-.256.268c-1.622,1.338-3.324,2.587-4.987,3.873-1.755,1.357-3.515,2.707-5.261,4.077q-5.31,4.166-10.651,8.293c-3.566,2.739-7.157,5.446-10.8,8.088q-1.473,1.069-2.957,2.125c-12.223,8.687-26.252,13.608-40.843,16.476a.745.745,0,0,0-.344,1.3,313.943,313.943,0,0,1,87,120.452c19.7,47.805,22.57,97.261,17.287,147.971-5.327,51.142-28.975,94.476-56.36,136.69a.755.755,0,0,0,.611,1.164,8.549,8.549,0,0,0,1.606-.05c10.855-1.682,21.695-3.455,32.56-5.069,2.818-.419,3.6-1.621,3.416-4.48-.9-14.336-1.612-28.685-2.307-43.034-.46-9.491,2.021-13.156,10.93-16.829,7.266-3,14.793-3.063,22.472-2.489,8.866.663,15.535,4.484,19.139,12.755a71.541,71.541,0,0,1,3.612,10.98c3.961,15.613,2.817,31.569,3.1,47.443a107.128,107.128,0,0,1-3.1,28.212c-2.652,10.489-6.363,20.364-14.572,28.011-9.274,8.641-20.263,14.057-32.338,17.373-15.438,4.24-31.371,4.579-47.195,5.1-25.9.853-51.691-1.286-77.46-3.671a11.2,11.2,0,0,0-5.707.979c-8.507,4.19-16.872,8.667-25.331,12.956-24.119,12.227-49.381,20.922-76.3,24.334-2.373.3-2.412,1.484-2.345,3.275.315,8.436-4.316,13.24-12.813,13.249-23.124.024-46.248.108-69.37-.061-6.194-.045-13.964-3.065-13.819-11.43a7.867,7.867,0,0,0-.6-3.658c-.578-1.1-1.662-2.54-2.711-2.714a263.836,263.836,0,0,1-56.574-15.534c-11.27-4.6-21.9-10.734-32.906-16.01-2.09-1-4.709-2.037-6.835-1.658-33.51,5.96-67.143,8.487-101.1,4.578-17.926-2.063-35.658-4.78-51.946-13.234-10.6-5.5-21.1-12.4-27.892-22.444a70.091,70.091,0,0,1-4.863-8.536A34.83,34.83,0,0,1,.289,577.19c-.568-3.441-.172-7.051.111-10.505.378-4.628,1.153-9.21,1.93-13.784,2.283-13.452,4.184-27.05,7.209-40.34,1.505-6.616,3.3-13.165,5.265-19.657a13.9,13.9,0,0,1,11.669-9.959,55.645,55.645,0,0,1,14.482-.745c12.719,1.471,18.088,8.856,16.224,21.427-1.666,11.24-3.412,22.469-5.152,33.7-.781,5.039-.554,5.51,4.366,7.413,12.134,4.692,24.885,6.3,37.717,7.456,3.606.325,7.225.512,11.345.776a.759.759,0,0,0,.719-1.11c-.752-1.417-1.278-2.462-1.905-3.443-8.4-13.133-17.33-25.957-25.12-39.441a263.867,263.867,0,0,1-25.923-62.015c-5.741-20.82-8.058-42.121-8.711-63.677-1.466-48.335,5.942-94.816,27.9-138.425a347.553,347.553,0,0,1,43.041-65.64c6.93-8.361,14.452-16.232,21.7-24.333,1.836-2.053,3.205-3.813-.448-5.761-5.166-2.754-10.1-5.954-15.076-9.047-3.278-2.036-3.758-3.481-1.931-6.522a.748.748,0,0,0-.16-.965,28.353,28.353,0,0,0-4.129-3.192q-16.848-9.36-33.811-18.515c-6.573-3.538-7.052-5.2-2.192-10.923,1.636-1.926,1.527-3.24-.412-4.592-3.48-2.424-6.836-5.069-10.5-7.181-8.1-4.674-16.342-9.1-24.557-13.574-4.35-2.368-4.649-3.851-1.311-7.15a20.156,20.156,0,0,0,1.662-1.992.759.759,0,0,0-.038-.985C36.038,55.651,27.9,47.137,20.064,38.35c-5.428-6.087-4.773-7.019,1.05-9.984a6.941,6.941,0,0,0,.933-.666.76.76,0,0,0,.066-1.15L4.266,9.511A.759.759,0,0,1,4.776,8.2c1.955-.026,3.552-.071,5.138.034,12.336.813,24.657,2.015,37,2.469,25.6.943,51.216,1.377,76.818,2.251a245.945,245.945,0,0,1,61.59,9.921c16.175,4.785,30,14.012,43.75,23.356,3.01,2.045,6.068,4.017,9.029,5.965a.745.745,0,0,0,.878-.043c20.49-16.389,42.876-27.7,68.573-32.074,20.657-3.513,41.214-4.2,61.673,1.176,15.2,3.993,29.241,10.733,42.824,18.462,2.844,1.619,5.013,1.653,7.883-.027q11.142-6.52,22.664-12.386c31.268-15.945,64.878-22.7,99.584-24.8C556.649,1.63,571.15,1.355,585.63.717ZM380.885,657.286c1.246-.251,2.437-.587,3.65-.719a203.21,203.21,0,0,0,44.053-10.222c20.715-7.111,40.1-17.2,59.423-27.327,3.186-1.67,5.932-1.124,8.987-.825a629.92,629.92,0,0,0,97.346,2.135,104.918,104.918,0,0,0,34.227-7.3c18.235-7.459,29.839-20.13,33.717-39.791a178.288,178.288,0,0,0,1.474-58.175,196.433,196.433,0,0,0-4.432-22.309c-1.048-4.156-3.558-7.971-7.737-9.654-11.519-4.637-22.7-3.63-33.319,2.89a7.128,7.128,0,0,0-3.537,6.946c.891,16.592,1.707,33.188,2.745,49.77.149,2.389-.424,3.539-2.665,3.992-4.767.963-9.5,2.191-14.3,2.878-11.675,1.67-23.385,3.092-36.1,4.747a34.353,34.353,0,0,1,1.933-4.028,419.9,419.9,0,0,0,38.545-66.7c7.915-17.309,14.844-34.975,18.064-53.811a360.244,360.244,0,0,0,4.615-83.256c-1.273-20.559-4.343-40.738-10.581-60.347-9.795-30.79-23.547-59.684-43.015-85.6-15.624-20.8-31.716-41.235-53.524-56.172-.884-.606-2.065-1.4-2.967-1.255-5.034.83-10.024,1.923-15.915,3.1,3.4,1.874,5.862,2.869,7.906,4.419,29.427,22.333,52.206,50.347,70.341,82.354,22.661,40,32.924,83.667,35.954,128.894,3.223,48.119-8.784,93.6-28.569,137.259-7.8,17.206-18.839,32.306-29.542,47.659-.472.678-1.285,1.588-1.944,1.592-5.118.03-10.237-.135-16.471-.263,2.466-2.918,4.146-4.712,5.608-6.669a380.063,380.063,0,0,0,33.62-54c6.63-12.906,12.612-26.088,15.967-40.28,6.826-28.877,9.081-58.21,8.455-87.808-.443-20.948-2.325-41.761-9.517-61.584-5.356-14.762-11.18-29.422-17.885-43.612-9.91-20.972-22.116-40.82-38.379-57.383-12.9-13.137-27.68-24.439-41.791-36.361-2.744-2.32-5.218-4.336-5.818-8.181-.195-1.25-2.045-3.207-3.079-3.17-2.563.09-2.2,2.413-2.05,4.328,3.393,44.071-8.832,83.084-38.769,115.836-24.986,27.336-56.359,43.05-93.131,47.288a145.027,145.027,0,0,1-93.777-20.4c-24.764-14.945-43.919-35.227-56.867-61.186a146.179,146.179,0,0,1-15.484-66.881c.009-1.664,0-3.328,0-5.926-24.553,17.79-45.022,38.016-62.071,61.7-29.388,40.833-43.616,87.081-45.411,136.7q-3.9,107.688,70.867,187.793c-5.007,1.1-9.668,1.816-14.12,3.2-4.274,1.329-6.935-.121-9.715-3.276a242.868,242.868,0,0,1-42.187-68.2c-15.427-37.26-23.348-75.945-22.044-116.472.789-24.514,4.007-48.575,11.414-71.929,16.451-51.869,44.283-96.4,86.142-131.706a22.919,22.919,0,0,0,2.669-3.339c-5.57-.514-10.4-1.2-15.248-1.28a8.108,8.108,0,0,0-5.371,2.2c-21.189,21.862-40.145,45.479-55.317,71.962-8.878,15.5-16.792,31.467-22.576,48.42-8.164,23.927-12.251,48.623-13.926,73.774-1.854,27.842-.379,55.551,5.582,82.776,8.007,36.575,24.351,69.61,45.322,100.431,5.009,7.362,10.393,14.469,15.6,21.688a2.9,2.9,0,0,1-.733.4,5.654,5.654,0,0,1-1.464.247c-20.66.544-40.913-1.688-60.394-9-6.285-2.36-6.95-4.059-5.914-10.773,1.96-12.7,3.718-25.429,5.464-38.16.706-5.15-1.9-8.694-6.261-10.9-8.4-4.251-16.539-2.554-24.253,1.841-1.675.955-2.909,3.106-3.763,4.973a41.31,41.31,0,0,0-2.47,7.836C11.335,523.893,7.127,544.8,5.254,566.144c-1.121,12.765,2.8,23.359,11.756,32.221a88.419,88.419,0,0,0,43.673,23.489c42.884,9.585,85.851,7.839,128.77-.212,1.912-.359,4.423-.366,5.967.583,25.99,15.97,54.243,25.788,84.092,31.356,4.828.9,9.679,1.678,14.215,2.46,0,4.2-.275,7.794.135,11.3.165,1.42,1.688,3.659,2.831,3.819a80.794,80.794,0,0,0,15.172.881,6.813,6.813,0,0,0,4.864-3.848c2.935-8.9-2.939-18.776-12.062-20.714-5.736-1.218-11.548-2.072-17.314-3.154-21.259-3.989-42.362-8.526-62.124-17.763-5.33-2.491-10.394-5.3-13.932-10.563a20.774,20.774,0,0,1,2.234-.828c8.372-2,16.781-3.852,25.111-6.011a19.688,19.688,0,0,1,11.361.465c7.728,2.456,15.509,4.81,23.385,6.727,21.013,5.114,42.167,9.694,63.953,9.213,12.727-.28,25.47-1.045,38.142-2.267,16.181-1.56,32.48-3.743,47.442-10.2,9.133-3.941,17.576-5.214,26.9-2.4,2.618.79,5.411.99,8.046,1.737,3.287.932,6.494,2.149,10.874,3.627a58.219,58.219,0,0,1-6.015,3.8c-8.073,3.653-16.112,7.407-24.334,10.7-21.649,8.664-43.912,15.045-67.289,16.79-9.973.744-12.2,2.617-13.764,12.626-.155.988-.372,1.972-.441,2.965-.407,5.851,2.729,9.766,8.6,9.944a57.5,57.5,0,0,0,11.087-1.161c3-.5,4.4-2.549,4.312-5.646C380.823,663.228,380.885,660.373,380.885,657.286Zm253.866-609c-3.416,0-5.562.275-7.59-.094a6.805,6.805,0,0,1-3.913-2.257c-.369-.476.695-2.524,1.562-3.414,2.438-2.5,5.232-4.654,7.67-7.155q9.543-9.789,18.883-19.775c2.931-3.12,4.015-8.072-.713-9.9-3.664-1.421-6.89-1.479-10.747-1.455q-6.216.039-12.432.063c-8.38.042-16.761.1-25.139.294-29.469.676-58.979.92-88.216,5.325A236.738,236.738,0,0,0,425.91,41.6a32.327,32.327,0,0,0-8.468,7.218c-10.724,13.461-21.591,26.845-31.568,40.853-7.805,10.959-14.516,22.714-21.381,34.312-1.228,2.075-1.857,5.557-.96,7.6,1.4,3.189,5.183,2.932,8.335,2.525a19.356,19.356,0,0,0,4.291-1.3c3.382-1.286,6.742-2.635,10.1-3.983,11.957-4.8,24.029-6.255,36.559-2.037,5.9,1.985,12.019,3.334,18.082,4.79,11.949,2.87,23.529,6.623,34.169,12.975a10.328,10.328,0,0,0,5.352.979,40.313,40.313,0,0,0,7.408-1.05c10.239-2.25,20.359-5.271,30.7-6.773q5.634-.819,11.175-2.158,5.43-1.317,10.719-3.14,5.207-1.8,10.232-4.071,4.994-2.259,9.772-4.958t9.338-5.8q4.593-3.124,8.931-6.605,4.405-3.525,8.55-7.363a34.621,34.621,0,0,0,4.007-4.327c.05-.065.1-.155.056-.224a.206.206,0,0,0-.148-.067,12.637,12.637,0,0,0-2.155-.161,15.943,15.943,0,0,1-2.026.063,2.494,2.494,0,0,1-2.141-2.412c-.485-3.148,1.3-4.323,3.9-4.812,4.537-.851,9.146-1.4,13.61-2.523,2.275-.574,4.943-1.614,6.33-3.334q9.159-11.353,17.6-23.284C629.271,58.309,631.6,53.634,634.751,48.285Zm-438.424,159.2c8.776-2,17.144-3.955,25.545-5.755a4.932,4.932,0,0,1,3.42.639c9.733,6.551,19.44,13.145,29.008,19.932a7.553,7.553,0,0,1,2.4,4.429c2.036,10.157,4.024,20.331,5.66,30.557a11.586,11.586,0,0,1-1.305,7.066,179.389,179.389,0,0,1-10.416,15.975c-1.882,2.6-1.665,4.35.916,5.8,9.452,5.308,18.687,11.106,28.5,15.638,15.949,7.362,33.153,9.969,50.54,11.491,3.084.27,4.08-.569,3.768-3.634-.668-6.584-1.111-13.19-1.681-19.785-.223-2.58.554-4.183,2.988-5.741,8.3-5.31,16.289-11.1,24.467-16.605a7.175,7.175,0,0,1,3.766-1.1c11.75-.062,23.5-.1,35.247.113a8.614,8.614,0,0,1,5.17,2.184c4.973,4.552,9.748,9.327,14.469,14.143,1.914,1.951,3.511,1.883,5.431.142,4.347-3.942,8.891-7.676,13.117-11.742,14.628-14.075,25.033-31,32.876-49.58.351-.831-.511-2.932-1.369-3.391-5.822-3.112-11.847-5.842-17.683-8.929a8.677,8.677,0,0,1-3.814-3.728c-4.1-9.509-8.115-19.066-11.729-28.766a11.554,11.554,0,0,1,.3-7.455c3.037-8.057,6.572-15.925,9.831-23.9,1-2.45,1.721-5.016,2.57-7.529l-1.441-.923c-1,1.1-2.376,2.031-2.955,3.321-3.981,8.879-7.71,17.872-11.756,26.721-.639,1.4-2.456,3.174-3.761,3.2-10.494.223-21,.137-31.493-.064a5.124,5.124,0,0,1-3.541-2.07q-8.841-13.239-17.34-26.7c-1.33-2.113-2.422-2.823-5.225-2.788-7.948.1-15.9-4.1-11.365-14.55a6.27,6.27,0,0,0,.838-2.46,40.208,40.208,0,0,0-.716-5.034c-.269-1.6-1.216-3.382-.786-4.743q4.794-15.163,10.159-30.142c.322-.9,2.274-1.7,3.485-1.722,3.989-.077,7.991.4,11.974.267,1.083-.036,2.119-1.466,3.176-2.256-1.091-.686-2.132-1.857-3.28-1.973-4.965-.5-10-.42-14.928-1.116a13.015,13.015,0,0,1-6.59-3.042c-6.829-6.224-13.391-12.742-20.008-19.2a6.691,6.691,0,0,1-2.135-6.312c1.018-7.373,1.406-14.833,2.042-22.227-20.327-5.25-77.668,11.1-87.9,24.98,3.641,6.1,7.388,12.136,10.839,18.339a6.972,6.972,0,0,1,.4,4.785c-2.308,8.3-5.139,16.454-7.2,24.8-.953,3.869-2.468,6.93-5.526,9.4-8.068,6.506-16.19,12.954-24.029,19.727-2.065,1.784-3.541,2.006-5.94,1.123-7.013-2.584-14.142-4.852-21.181-7.368-2.084-.745-3.045-.5-3.8,1.824a151.721,151.721,0,0,0-7.326,52.417A124.415,124.415,0,0,0,196.327,207.482ZM229.819,63.35a30.468,30.468,0,0,1,3.835-4.33c2.346-1.925,1.791-3.209-.369-4.591-3.364-2.152-6.874-4.115-10.041-6.527-25.288-19.255-54.736-26.808-85.577-29.491-18.391-1.6-36.946-1.263-55.423-1.929q-24.156-.87-48.3-2.081c-6.161-.32-12.292-1.214-19.632-1.97,1.633,1.723,2.494,2.671,3.4,3.577,2.375,2.383,4.984,4.572,7.11,7.159,4.053,4.931,3.56,6.667-2.135,9.472-.188.093-.28.381-.632.888.867,1.048,1.741,2.22,2.731,3.284,7.4,7.956,14.851,15.873,22.247,23.837,4.468,4.812,4.422,5.047-.573,8.856-.152.116-.137.45-.285.993.855.528,1.754,1.153,2.714,1.664,4.846,2.58,9.887,4.845,14.521,7.76a224.656,224.656,0,0,1,19.023,13.16,6.029,6.029,0,0,1,.4,9.537c-2.6,2.42-1.268,3.468.955,4.613,3.107,1.6,6.234,3.164,9.306,4.828,8.343,4.519,16.7,9,24.968,13.665,3.229,1.821,5.838,4.159,5.489,8.592-.085,1.081,1.481,2.663,2.669,3.41,5.489,3.456,11.039,6.83,16.717,9.96,2.876,1.586,6.052,3.619,9.125,3.677,10.338.193,20.69-.426,31.037-.7,3.253-.086,4.432-1.871,4.87-4.924,3.571-24.869,13.283-47.191,28.19-67.328a19.634,19.634,0,0,0,1.136-1.763c-5.332-1.984-10.668-3.341-15.407-5.833C168.841,53.447,134.677,39.567,96.159,35.98c1.259-.463,1.683-.658,2.127-.775,1.2-.316,2.412-.636,3.632-.892,14.589-3.059,29.2-2.758,43.961-1.044,27.507,3.2,53.459,11.083,77.674,24.519C225.751,59.007,227.419,61.18,229.819,63.35Z"/><path class="cls-1" d="M571.361,12.1l-.34-.817a23.416,23.416,0,0,0-2.585-.161,312.932,312.932,0,0,0-56.714,7.444c-23.215,5.349-44.358,15.679-65.176,26.865-11.466,6.161-23.14,12.133-31.79,22.083-5.009,5.762-8.966,12.492-12.975,19.044-1.563,2.555-.281,3.9,2.607,3.007a34.412,34.412,0,0,0,6.3-3.151c9.69-5.394,19.013-11.6,29.1-16.107C482.5,51.212,525.44,32.62,568.291,13.825A34.486,34.486,0,0,0,571.361,12.1Z"/><path class="cls-1" d="M338.237,54.452c-4.133.993-7.653,1.818-11.163,2.685-17.663,4.363-35.334,8.694-52.962,13.191-1.394.356-3.211,1.663-3.6,2.914-3.134,9.989-6.022,20.058-8.825,30.146a4.254,4.254,0,0,0,.756,3.576q12.063,11.2,24.429,22.073a5.442,5.442,0,0,0,3.985,1.161c4.167-.716,8.266-1.835,12.39-2.8,15.88-3.728,31.753-7.486,47.647-11.152,2.04-.47,3.3-1.2,3.721-3.463a65.583,65.583,0,0,1,2.25-7.907c2.322-7.239,4.877-14.41,6.922-21.725.51-1.823.167-4.788-1.029-6.032-6.741-7.016-13.83-13.7-20.884-20.409A18.783,18.783,0,0,0,338.237,54.452Zm45.024,208.917v-.036c5.872,0,11.746.111,17.612-.079a6.106,6.106,0,0,0,4.206-1.708q19.167-24.7,38.027-49.632a4.143,4.143,0,0,0,.784-3.311c-4.027-10.075-8.235-20.077-12.386-30.1a4.74,4.74,0,0,0-4.776-3.372c-9.988-.129-19.973-.5-29.961-.633a4.759,4.759,0,0,0-3.488,1.412q-16.839,23.39-33.391,46.985a8.275,8.275,0,0,0-1.5,5.139c1.15,10.668,2.624,21.3,3.889,31.956.312,2.622,1.443,3.537,4.124,3.441C372.015,263.229,377.64,263.369,383.261,263.369Zm-97.193-95.516h.115c0-9.987-.047-19.975.031-29.962a7.342,7.342,0,0,0-3.023-6.4c-8.025-6.344-16.04-12.719-23.744-19.444-2.5-2.186-4.054-2.006-6.35-.168-7.4,5.923-14.771,11.891-22.4,17.5-2.862,2.1-3.831,4.373-3.9,7.8-.341,18.344-.749,36.69-1.511,55.021-.168,4.029,1.372,6.147,4.425,8.1,8.291,5.315,16.594,10.626,24.648,16.286,2.659,1.868,4.6,1.756,7.077.162,6.92-4.455,13.8-8.987,20.909-13.124,2.933-1.706,3.837-3.717,3.782-6.934C285.963,187.08,286.068,177.466,286.068,167.853Zm72.5,95.512c-1.944-12.018-3.76-23.476-5.722-34.909a3.682,3.682,0,0,0-2.07-2.25c-3.938-1.542-7.957-2.879-11.959-4.257-15.914-5.478-31.815-11-47.779-16.323a6.265,6.265,0,0,0-4.714.676c-7.572,4.828-14.949,9.961-22.492,14.835-2.145,1.386-2.6,2.884-2.114,5.307,1.942,9.662,3.579,19.387,5.623,29.027a6.638,6.638,0,0,0,3.3,4.294c19.331,7.384,38.79,14.431,58.113,21.836,3.1,1.19,5.251.395,7.537-1.2,6.749-4.7,13.49-9.406,20.159-14.215A11.5,11.5,0,0,0,358.568,263.365Z"/><path class="cls-1" d="M180.035,341.836a62.63,62.63,0,0,0,4.108-5.573c5.875-10.443,11.583-20.979,17.518-31.387a54.886,54.886,0,0,1,6.754-9.834c4.709-5.179,10.419-5.183,15.423-.381a66.473,66.473,0,0,1,6.281,6.927,19.335,19.335,0,0,1,4.43,12.4c-.14,29.24-.1,58.481-.134,87.721,0,.731-.1,1.462-.211,2.936-7.882.178-15.689.422-23.5.4-.6,0-1.714-1.874-1.723-2.884-.077-8.5.015-16.993.122-25.49.087-6.99.285-13.98.372-20.97a24.152,24.152,0,0,0-.776-3.871c-4.474,6.676-8.488,12.349-12.167,18.232q-8.433,13.482-16.456,27.219c-1.723,2.931-3.76,4.7-7.335,4.742-5.228.065-10.452.448-16.266.724-3.489-42.571-5.525-85.068-10.242-127.32l-1.631-.49c-2.022,3.576-4.372,7.009-6.01,10.754-8.5,19.43-11.443,40.052-11.971,61.011-.45,17.848-.187,35.718.017,53.575.042,3.7-.757,5.094-4.7,4.925-6.232-.266-12.494-.04-18.734.19-2.693.1-4.035-.408-4.24-3.522-2.577-39.106-.348-77.721,12.544-115.077,4.981-14.434,12.384-27.837,20.986-40.458a256.59,256.59,0,0,1,18.388-24.548c3.906-4.469,9.261-7.877,14.442-10.96,3.889-2.315,8.029.023,9.03,4.578a47.61,47.61,0,0,1,.951,10.029c.081,26.739-.159,53.482.181,80.217.126,9.958,1.465,19.907,2.421,29.843C178.092,337.325,179.084,339.075,180.035,341.836Z"/><path class="cls-1" d="M453.344,295.631l13.184-20.047,77.757,52.967,1.206-.718c-1.394-6.874-2.527-13.814-4.227-20.612-7.116-28.447-22.252-52.4-41.757-73.875-.7-.768-1.413-2.419-1.056-3.1,3.841-7.387,7.895-14.662,12.086-22.323,5.107,5.054,10.233,9.444,14.556,14.518,24.151,28.343,39.936,60.647,46.349,97.534a429.684,429.684,0,0,1,6.586,74.164c-.008,8.974-.077,9.017-8.792,8.851-5.744-.109-11.486-.489-17.229-.5-2.975-.008-4.093-.912-4.1-4.087-.028-11.368-.521-22.735-.508-34.1,0-3.851-1.428-6.151-4.554-8.237q-37.7-25.162-75.24-50.571C462.864,302.291,458.2,298.989,453.344,295.631Z"/><path class="cls-1" d="M476.238,484.784c0,4.072-.06,7.663.021,11.252.054,2.4,1.718,2.841,3.79,3.2,10.184,1.774,20.393,3.468,30.48,5.7,6.35,1.407,8.619,4.277,8.518,8.782-.1,4.315-5.3,11.874-9.31,12.1-3.456.194-7.137-.9-10.488-2.076a186.369,186.369,0,0,0-38.974-8.966,26.085,26.085,0,0,0-5.969-.1c-2.7.292-3.453-.784-3.457-3.353-.04-23.866-.231-47.732-.246-71.6,0-8.359,5.214-13.259,13.708-13.266q32.971-.024,65.942-.021c7.623-.006,15.245-.073,22.868-.11,7.725-.037,12.216,3.971,12.635,11.859a29.287,29.287,0,0,1-1.3,8.809c-.248.938-1.815,1.932-2.926,2.149a34.7,34.7,0,0,1-5.976.208q-32.982.573-65.964,1.127c-2.867.046-5.747-.311-8.6-.157a7.35,7.35,0,0,0-6.821,6.335c-.433,4.151,1.954,6.975,6.243,7.015,9.746.091,19.5.229,29.238-.046,3.9-.11,6.162,1.311,7.409,4.775a42.51,42.51,0,0,1,2.23,6.717c.993,5.555-1.917,9.467-7.585,9.607-10.229.255-20.469.057-30.7.049Z"/><path class="cls-1" d="M105.023,429.854c8.075-.266,15.888-.622,23.7-.642.885,0,2.163,1.745,2.6,2.926,4.442,11.9,7.963,24.218,13.343,35.667,4.245,9.036,10.311,17.338,16.381,25.351,3.531,4.662,8.665,8.11,13.828,12.784,1.757-3.871,3.464-6.862,4.51-10.068,5.22-16,10.287-32.05,15.362-48.1,1.578-4.991,2.881-10.073,4.617-15.007.408-1.162,2.038-2.668,3.135-2.692,9.474-.213,18.955-.123,29.193-.123-.921,3.191-1.6,6.131-2.611,8.952q-11.728,32.745-23.554,65.454c-1.812,5.043-3.121,10.3-5.324,15.162-7.581,16.728-23.371,18.267-38.043,12.286-7.627-3.109-12.857-9.34-18.1-15.386-14.559-16.784-23.965-36.406-30.995-57.242-2.867-8.5-5-17.248-7.442-25.892C105.363,432.351,105.283,431.364,105.023,429.854Z"/><path class="cls-1" d="M225.062,509.847c7.511-16.195,14.593-31.446,21.655-46.706,4.875-10.534,9.78-21.054,14.53-31.644.994-2.217,2.115-3.159,4.7-3.152,10.617.028,21.237-.15,31.852-.428,3.08-.08,4.522.91,5.672,3.96,7.473,19.839,15.239,39.567,22.893,59.337.622,1.607,1.121,3.261,1.8,5.262-7.768.913-15.169,1.855-22.594,2.552-.8.075-2.083-1.09-2.545-1.988-1.365-2.651-2.4-5.47-3.622-8.2-.847-1.891-1.777-3.351-4.453-3-10.757,1.409-21.533,2.7-32.327,3.779a6.682,6.682,0,0,0-5.669,3.551c-2.209,3.765-4.468,7.5-6.839,11.169-.627.97-1.649,2.183-2.641,2.342C240.232,507.844,232.953,508.765,225.062,509.847Zm56.727-58.459-11.443,21.491,20.33-5.856Z"/><path class="cls-1" d="M369.288,368.565q0-4.027,0-8.055c0-8.624.07-17.248-.024-25.871-.026-2.389.629-3.363,3.2-3.208,4.487.271,8.994.268,13.492.274,2.024,0,2.862.7,2.868,2.856q.089,32.246.359,64.49c.021,2.494-1.03,3.3-3.359,3.248-6.621-.161-13.253-.077-19.86-.456a6.321,6.321,0,0,1-4.1-2.648c-5.69-8.359-11.153-16.871-16.731-25.307-1.143-1.729-2.458-3.344-3.694-5.011l-1,.293c.106,1.37.322,2.743.3,4.111-.143,8.87-.273,17.741-.622,26.6a3.4,3.4,0,0,1-2.4,2.288c-5.729.2-11.469.106-17.385.106a18.559,18.559,0,0,1-.455-2.748q-.094-27.919-.117-55.839c0-5.174,1.935-7.747,6.767-9.627,7.013-2.728,13.632-1,18.663,5.328,7,8.8,13.759,17.78,20.638,26.671.771,1,1.646,1.913,2.472,2.866Z"/><path class="cls-1" d="M410.652,402.153c-.077-1.24-.2-2.344-.2-3.448-.191-23.477-.327-46.954-.6-70.429-.035-2.932.771-4.822,3.346-6.438,5.493-3.446,10.749-7.268,16.124-10.905,1.107-.749,2.309-1.36,4.142-2.427,0,3.186-.038,5.718.006,8.248.322,18.851.618,37.7,1.017,56.552.121,5.723.256,5.722,6.075,5.7,19.357-.063,38.714-.086,58.069-.239,2.647-.021,3.858.524,3.712,3.488-.271,5.484-.285,10.987-.209,16.479.034,2.5-.686,3.619-3.367,3.623q-42.708.063-85.416.243A16.879,16.879,0,0,1,410.652,402.153Z"/><path class="cls-1" d="M239.024,404.605c3.857-8.423,7.218-15.908,10.7-23.337,5.881-12.541,11.855-25.039,17.758-37.571,2.908-6.174,6.7-11.341,13.624-13.547,6.391-2.036,10.366-.713,14.135,4.819,5.057,7.421,7.506,15.73,8.407,24.519,1.5,14.632,2.806,29.283,4.246,44.472H288.461c.709-5.321-3.014-4.975-6.816-4.951-5.367.032-10.739-.2-16.1-.434-2.352-.1-4.006.526-4.15,3.107-.129,2.3-1.465,2.932-3.47,2.927C251.946,404.6,245.969,404.605,239.024,404.605Zm42.112-45.637-1.2-.014-9.942,22.474h17C284.931,373.537,283.033,366.253,281.136,358.968Z"/><path class="cls-1" d="M427.455,508.687c-6.633-1.045-12.493-2.129-18.4-2.868q-26.214-3.281-52.459-6.317c-5.107-.6-5.166-.453-5.183-5.462q-.109-31.5-.167-62.992c0-.726.106-1.451.182-2.439H376.8c0,2.807-.021,5.631,0,8.455.115,13.247.169,26.5.4,39.741.1,5.692.25,5.863,5.762,6.5,13.026,1.513,26.078,2.808,39.111,4.266,5.349.6,5.353.684,5.377,6.178C427.472,498.6,427.455,503.44,427.455,508.687Z"/><path class="cls-1" d="M636.921,502.662a34.914,34.914,0,0,1-6.684-.815c-2.408-.518-5.013-1.1-7.035-2.585a5.884,5.884,0,0,1-2.514-4.05c-.346-3.819,4.2-4.974,7-5.919a29.987,29.987,0,0,1,8.079-1.573c5.966-.3,12.77,1.324,16.624,6.235a2.9,2.9,0,0,1,.636,1.191,3.019,3.019,0,0,1-1.277,2.575c-3.6,3.3-8.588,4.775-13.392,4.931Q637.64,502.676,636.921,502.662Z"/><path class="cls-1" d="M42.486,526.63a62.024,62.024,0,0,1-1.12,8.153c-.48,1.949-.725,4.793-3.98,4.513-3.191-.275-7.05-.768-7.406-4.4-.5-5.123.231-10.38.644-15.563.046-.579,1.378-1.249,2.226-1.513a7.619,7.619,0,0,1,2.6.023C44.174,518.372,42.245,518.025,42.486,526.63Z"/><path class="cls-1" d="M35.132,504.622a16.492,16.492,0,0,1-7.9-2.66c-1.915-1.248-3.69-2.736-2.756-5.255a5.73,5.73,0,0,1,1.814-2.453c4.567-3.569,14.13-4.071,18.7-.661,1.125.84,2.93,2.52,3.029,4.026a2.665,2.665,0,0,1-.457,1.526C45.008,503.324,39.862,504.953,35.132,504.622Z"/><path class="cls-1" d="M620.741,509.9c4.974-2.017,7.323-.971,8,4.56.762,6.183,1.134,12.417,1.537,18.637.085,1.314,0,3.082-.782,3.9a9.379,9.379,0,0,1-4.43,2.1c-.25.064-1.4-1.99-1.536-3.136C622.525,527.339,621.665,518.7,620.741,509.9Z"/><path class="cls-1" d="M571.361,12.1a34.486,34.486,0,0,1-3.07,1.724C525.44,32.62,482.5,51.212,439.783,70.308c-10.084,4.508-19.407,10.713-29.1,16.107a34.412,34.412,0,0,1-6.3,3.151c-2.888.894-4.17-.452-2.607-3.007,4.009-6.552,7.966-13.282,12.975-19.044,8.65-9.95,20.324-15.922,31.79-22.083,20.818-11.186,41.961-21.516,65.176-26.865a312.932,312.932,0,0,1,56.714-7.444,23.416,23.416,0,0,1,2.585.161Z"/><path class="cls-1" d="M338.237,54.452a18.783,18.783,0,0,1,3.634,2.254c7.054,6.708,14.143,13.393,20.884,20.409,1.2,1.244,1.539,4.209,1.029,6.032-2.045,7.315-4.6,14.486-6.922,21.725a65.583,65.583,0,0,0-2.25,7.907c-.423,2.266-1.681,2.993-3.721,3.463-15.894,3.666-31.767,7.424-47.647,11.152-4.124.969-8.223,2.088-12.39,2.8a5.442,5.442,0,0,1-3.985-1.161q-12.36-10.874-24.429-22.073a4.254,4.254,0,0,1-.756-3.576c2.8-10.088,5.691-20.157,8.825-30.146.392-1.251,2.209-2.558,3.6-2.914,17.628-4.5,35.3-8.828,52.962-13.191C330.584,56.27,334.1,55.445,338.237,54.452Z"/><path class="cls-1" d="M383.261,263.369c-5.621,0-11.246-.14-16.86.06-2.681.1-3.812-.819-4.124-3.441-1.265-10.656-2.739-21.288-3.889-31.956a8.275,8.275,0,0,1,1.5-5.139q16.542-23.6,33.391-46.985a4.759,4.759,0,0,1,3.488-1.412c9.988.132,19.973.5,29.961.633A4.74,4.74,0,0,1,431.5,178.5c4.151,10.025,8.359,20.027,12.386,30.1a4.143,4.143,0,0,1-.784,3.311q-18.9,24.9-38.027,49.632a6.106,6.106,0,0,1-4.206,1.708c-5.866.19-11.74.079-17.612.079Z"/><path class="cls-1" d="M286.068,167.853c0,9.613-.1,19.227.059,28.837.055,3.217-.849,5.228-3.782,6.934-7.109,4.137-13.989,8.669-20.909,13.124-2.475,1.594-4.418,1.706-7.077-.162-8.054-5.66-16.357-10.971-24.648-16.286-3.053-1.957-4.593-4.075-4.425-8.1.762-18.331,1.17-36.677,1.511-55.021.064-3.425,1.033-5.694,3.9-7.8,7.634-5.61,15.006-11.578,22.405-17.5,2.3-1.838,3.846-2.018,6.35.168,7.7,6.725,15.719,13.1,23.744,19.444a7.342,7.342,0,0,1,3.023,6.4c-.078,9.987-.031,19.975-.031,29.962Z"/><path class="cls-1" d="M358.568,263.365a11.5,11.5,0,0,1-2.118,2.825c-6.669,4.809-13.41,9.519-20.159,14.215-2.286,1.591-4.433,2.386-7.537,1.2-19.323-7.4-38.782-14.452-58.113-21.836a6.638,6.638,0,0,1-3.3-4.294c-2.044-9.64-3.681-19.365-5.623-29.027-.487-2.423-.031-3.921,2.114-5.307,7.543-4.874,14.92-10.007,22.492-14.835a6.265,6.265,0,0,1,4.714-.676c15.964,5.328,31.865,10.845,47.779,16.323,4,1.378,8.021,2.715,11.959,4.257a3.682,3.682,0,0,1,2.07,2.25C354.808,239.889,356.624,251.347,358.568,263.365Z"/><path class="cls-1" d="M198.268,568.655c-5.794,1.469-7.189,6.584-5.6,12.829,1.587,6.262,5.537,10.3,11.222,8.86,6.169-1.563,7.043-7.282,5.594-13C207.941,571.278,204.246,567.139,198.268,568.655Z"/><path class="cls-1" d="M232.076,559.915c-5.8,1.465-7.195,6.58-5.616,12.827,1.584,6.264,5.531,10.307,11.219,8.87,6.17-1.561,7.049-7.279,5.6-13C241.748,562.545,238.056,558.4,232.076,559.915Z"/><path class="cls-1" d="M294.825,560.752l-6.358.86,1.205,8.9,6.4-.866c3.832-.518,5.35-2.355,4.948-5.328C300.66,561.679,298.725,560.223,294.825,560.752Z"/><path class="cls-1" d="M298.523,550.789c-.325-2.4-2.316-3.4-5.051-3.026l-6.757.915,1.01,7.458,6.554-.887C297.647,554.793,298.834,553.092,298.523,550.789Z"/><path class="cls-1" d="M324.244,544.7c-.679,3.294-2.115,8.549-3.748,14.589l9.039-.377c-2.639-6.88-4.321-11.275-5.243-14.214Z"/><path class="cls-1" d="M651.768,538.256c-1.489.618-2.771,1.081-3.994,1.668a187.82,187.82,0,0,1-60.605,17.07c-75.886,8.638-145.369-22.84-219.759-30.641-49.377-5.177-99.438,1.261-147.534,13.582-34.115,8.74-67.869,20.486-103.168,23.472-31.458,2.662-67.022-3.22-96.367-14.975a15.874,15.874,0,0,0-2.785-.376c.973,8.9,1.571,17.451,2.9,25.888C23.287,591.862,33,603.8,50.532,610.111c19.719,7.1,40.009,9.78,60.663,10.061,11.827.161,23.695-1.067,35.51-2.077,11.158-.953,22.289-2.269,33.335-4.119,51.58-8.636,99.985-29.986,153.124-30.161,31.352-.1,62.2,6.439,92.611,13.4,24.849,5.688,49.688,11.749,75.019,14.914,26.1,3.26,52.306,2.758,78.556,2.482,14.192-.149,28.177-1.741,41.521-6.9C650.685,596.183,661.243,567.189,651.768,538.256ZM66.08,595.4c-5.959-.014-10.635-4.391-10.492-9.822.129-4.943,5.045-9.572,10.164-9.57A9.7,9.7,0,1,1,66.08,595.4Zm101.894-5.077,2.515,13.016-6.861,1.326-6.28-32.5,22.683-4.384,1.112,5.759L165.322,576.6l1.539,7.963,14.82-2.865,1.113,5.76Zm37.08,5.735c-10.066,2.552-17.189-3.427-19.518-12.615-2.367-9.335,1.635-17.978,11.6-20.505,9.383-2.379,17,2.689,19.485,12.507C218.883,584.37,215.472,593.414,205.054,596.055Zm33.789-8.731c-10.069,2.545-17.189-3.441-19.513-12.631-2.36-9.338,1.649-17.98,11.616-20.5,9.386-2.372,17,2.7,19.479,12.522C252.683,575.646,249.265,584.689,238.843,587.324Zm32.609-7.988-7.014,1.448-5.5-26.668-9.848,2.033-1.186-5.744,26.674-5.507,1.186,5.745-9.812,2.026Zm26.813-4.407-14.811,2-4.439-32.79,14.327-1.94c7.922-1.072,11.487,2.651,12.064,6.911a7.543,7.543,0,0,1-3.211,7.674,7.891,7.891,0,0,1,6.123,6.783C309.078,569.183,305.24,573.985,298.265,574.929Zm36.088-2.7-3.036-7.524-12.078.5-2.262,7.744-7.028.293,9.849-33.532,8.98-.374,13.092,32.576Zm32.278.841-22.809-.849,1.23-33.074,7.152.266-1.012,27.213,16.474.613Zm25.543,2.562-22.708-2.287,3.314-32.926,7.12.715-2.727,27.092,16.4,1.652Zm26.221,4.912c-10.311-1.955-13.8-10.177-12.049-19.427,1.69-8.914,8.234-15.948,18.728-13.959,8.658,1.642,11.892,7.52,11.656,13.106l-7.031-1.333c-.2-2.635-1.475-5.464-5.9-6.3-5.8-1.1-9.026,3.691-10.148,9.609-1.042,5.5-.2,11.656,6.086,12.848a6.581,6.581,0,0,0,7.591-3.71l7.073,1.34C431.949,578.534,426.538,582.085,418.4,580.542Zm39.647,8.362-22.2-5.282,7.658-32.191,6.961,1.657-6.3,26.485,16.035,3.815Zm15.659,4.527c-7.24-1.835-12.739-6.333-10.023-17.047l4.792-18.9,6.946,1.761-4.844,19.112c-1.561,6.155,1.141,8.781,4.6,9.658,3.969,1.006,7.007-.519,8.484-6.341l4.844-19.112,6.942,1.76-4.758,18.767C487.9,594.057,480.774,595.224,473.7,593.431Zm49.938-14.552a7.543,7.543,0,0,1-5.523,6.221,7.893,7.893,0,0,1,3.6,8.4c-1.1,5.555-6.285,8.856-13.19,7.491l-14.663-2.9,6.418-32.464,14.183,2.8C522.3,569.984,524.472,574.662,523.639,578.879Zm61.919,13.807a9.057,9.057,0,0,1-9.274-9.184,9.392,9.392,0,0,1,9.038-9.535c4.614-.116,8.9,4.326,8.931,9.256C594.285,588.323,590.3,592.662,585.558,592.686Z"/><path class="cls-1" d="M509.858,586.464l-6.294-1.245-1.742,8.815,6.333,1.252c3.794.75,5.826-.5,6.407-3.44C515.079,589.231,513.72,587.227,509.858,586.464Z"/><path class="cls-1" d="M512.785,573.736l-6.69-1.322-1.459,7.384,6.488,1.282c3.334.659,5.009-.566,5.46-2.846C517.054,575.855,515.493,574.271,512.785,573.736Z"/><path class="cls-1" d="M305.072,618.7V597.568a16.453,16.453,0,0,1-5.187,2.028v-3.039a14.978,14.978,0,0,0,6.247-3.627h2.847V618.7Z"/><path class="cls-1" d="M318.807,612.931A4.1,4.1,0,0,0,323.186,616c4.72,0,5.131-6.309,5.266-9.46-1.181,2.027-3.383,2.885-6,2.885-4.91,0-7.934-3.5-7.934-8.183,0-4.769,3.2-8.654,8.782-8.654,6.556,0,8.967,5.137,8.967,11.845,0,6.822-1.5,14.694-9.25,14.694-5.312,0-7.531-3.146-8.13-6.195Zm-.354-11.853c0,3.16,1.8,5.2,4.726,5.2,3.351,0,4.914-1.748,4.914-5.057,0-1.606-.613-5.481-4.84-5.481C319.938,595.735,318.453,598.09,318.453,601.078Z"/><path class="cls-1" d="M352.746,596.313H342.1c-.22,1.932-.822,5.545-1.063,6.861a6.812,6.812,0,0,1,5.233-1.932c4.766,0,7.765,3.34,7.765,8.519,0,5-2.645,9.407-9,9.407-4.677,0-8.074-2.549-8.726-6.956h3.875a4.786,4.786,0,0,0,4.967,3.843c3.33,0,4.968-2.386,4.968-6,0-3.194-1.3-5.609-4.748-5.609-2.967,0-4.184,1.252-5.032,3.209l-3.545-.6c.748-3.343,1.752-10.729,2.138-14.019h14.353Z"/><path class="cls-1" d="M362.315,618.7V597.568a16.453,16.453,0,0,1-5.187,2.028v-3.039a14.978,14.978,0,0,0,6.247-3.627h2.847V618.7Z"/></g></g></g></svg>